<svg width="96" height="96" xmlns="http://www.w3.org/2000/svg" xmlns:xlink="http://www.w3.org/1999/xlink" overflow="hidden"><defs><clipPath id="clip0"><rect x="45" y="82" width="96" height="96"/></clipPath></defs><g clip-path="url(#clip0)" transform="translate(-45 -82)"><path d="M121 100C121 104.418 108.464 108 93 108 77.536 108 65 104.418 65 100 65 95.5817 77.536 92 93 92 108.464 92 121 95.5817 121 100Z"/><path d="M113 120C111.8 120 111 119.2 111 118 111 116.8 111.8 116 113 116 114.2 116 115 116.8 115 118 115 119.2 114.2 120 113 120ZM93 112C77.6 112 65 108.4 65 104L65 120C65 124.4 77.6 128 93 128 108.4 128 121 124.4 121 120L121 104C121 108.4 108.4 112 93 112Z"/><path d="M113 140C111.8 140 111 139.2 111 138 111 136.8 111.8 136 113 136 114.2 136 115 136.8 115 138 115 139.2 114.2 140 113 140ZM93 132C77.6 132 65 128.4 65 124L65 140C65 144.4 77.6 148 93 148 108.4 148 121 144.4 121 140L121 124C121 128.4 108.4 132 93 132Z"/><path d="M113 160C111.8 160 111 159.2 111 158 111 156.8 111.8 156 113 156 114.2 156 115 156.8 115 158 115 159.2 114.2 160 113 160ZM93 152C77.6 152 65 148.4 65 144L65 160C65 164.4 77.6 168 93 168 108.4 168 121 164.4 121 160L121 144C121 148.4 108.4 152 93 152Z"/></g></svg>