<svg width="498" height="498" xmlns="http://www.w3.org/2000/svg" xmlns:xlink="http://www.w3.org/1999/xlink" overflow="hidden"><defs><clipPath id="clip0"><rect x="437" y="93" width="498" height="498"/></clipPath></defs><g clip-path="url(#clip0)" transform="translate(-437 -93)"><path d="M670.157 404.25 701.905 404.25 711.969 373.125 660.094 373.125 670.157 404.25Z"/><path d="M670.935 414.625 663.88 516.974 686.031 539.125 708.182 516.974 701.127 414.625 670.935 414.625Z"/><path d="M852 429.98C851.708 414.761 844.597 400.479 832.63 391.074 813.249 375.21 790.471 365.416 766.562 356.867L741.117 346.425C739.171 345.626 737.901 343.73 737.901 341.627L737.901 328.896C757.111 313.522 768.49 290.401 768.953 265.801L782.171 243.126C784.15 238.452 784.945 233.361 784.485 228.306 781.478 194.309 760.86 164.379 730.166 149.456 727.694 148.296 724.789 148.555 722.562 150.135L717.322 153.766 711.528 145.845C709.744 143.347 707.061 141.638 704.042 141.078 698.645 140.146 693.178 139.681 687.701 139.688 640.98 139.693 600.872 172.939 592.2 218.849L591.992 219.98C589.474 233.451 584.258 246.273 576.658 257.677L603.052 257.677 603.052 264.188C603.053 289.345 614.486 313.138 634.125 328.86L634.125 341.601C634.125 343.704 632.855 345.6 630.909 346.399L605.49 356.821C581.565 365.375 558.802 375.153 539.536 390.908 527.434 400.382 520.265 414.82 520.031 430.188L520.031 520.969 524.181 524.081C546.928 541.143 607.088 546.642 640.9 548.4L653.106 549.033 632.916 367.989 638.783 365.582C648.529 361.61 654.893 352.125 654.875 341.601L654.875 341.082C674.835 349.233 697.196 349.233 717.156 341.082L717.156 341.601C717.132 352.126 723.492 361.615 733.237 365.593L739.104 368 718.91 549.044 731.11 548.411C764.949 546.652 825.108 541.148 847.86 524.092L852.01 520.979ZM623.802 264.188 623.802 257.677 659.954 257.677C713.281 257.677 706.029 215.176 729.362 209.091 735.775 207.897 742.401 208.75 748.302 211.529L748.302 264.188C748.302 298.567 720.432 326.438 686.052 326.438 651.672 326.438 623.802 298.567 623.802 264.188ZM810.526 456.125 763.838 456.125 763.838 445.75 810.526 445.75Z"/></g></svg>