<svg width="96" height="96" xmlns="http://www.w3.org/2000/svg" xmlns:xlink="http://www.w3.org/1999/xlink" overflow="hidden"><defs><clipPath id="clip0"><rect x="45" y="107" width="96" height="96"/></clipPath></defs><g clip-path="url(#clip0)" transform="translate(-45 -107)"><path d="M131.447 126.116C131.231 126.042 131.004 126.006 130.775 126.009L130.115 126 55.128 126 54.763 126.008C53.6739 125.999 52.7839 126.875 52.775 127.964 52.7749 127.976 52.7749 127.988 52.775 128L52.775 172C52.775 173.105 53.6705 174 54.7751 174 55.0854 174 55.3914 173.928 55.669 173.789L67.248 168 77.614 168C77.9223 166.604 78.4224 165.258 79.1 164L74.7 164 74.7 159.242 81.128 159.242 81.128 161.11C81.446 160.749 81.778 160.402 82.128 160.072L82.128 159.242 83.069 159.242C83.517 158.883 83.9843 158.549 84.469 158.242L82.132 158.242 82.132 153.367 88.561 153.367 88.561 156.4C88.891 156.306 89.222 156.215 89.561 156.143L89.561 153.367 95.989 153.367 95.989 156.114C96.329 156.184 96.658 156.28 96.989 156.372L96.989 153.367 103.417 153.367 103.417 158.242 101.191 158.242C101.676 158.549 102.143 158.883 102.591 159.242L103.413 159.242 103.413 159.964C103.762 160.287 104.095 160.625 104.413 160.979L104.413 159.242 110.842 159.242 110.842 164 106.568 164C107.246 165.258 107.746 166.604 108.054 168L118.3 168 129.88 173.789C130.868 174.283 132.069 173.883 132.564 172.895 132.703 172.617 132.775 172.311 132.775 172L132.775 128C132.775 127.154 132.243 126.4 131.447 126.116ZM66.275 144.279C65.968 143.379 65.626 142.479 65.264 141.593L66.275 141.593ZM66.275 140.593 64.853 140.593C64.175 139.019 63.4083 137.46 62.553 135.917L66.271 135.917ZM73.7 164 68.775 164 68.775 159.242 73.7 159.242ZM73.7 158.242 68.757 158.242C68.7278 156.612 68.6086 154.984 68.4 153.367L73.7 153.367ZM73.7 152.367 68.262 152.367C68.016 150.77 67.6865 149.187 67.275 147.624L67.275 147.45 73.7 147.45ZM73.7 146.455 67.275 146.455 67.275 141.593 73.7 141.593ZM73.7 140.593 67.275 140.593 67.275 135.917 73.7 135.917ZM81.128 158.242 74.7 158.242 74.7 153.367 81.128 153.367ZM81.128 152.367 74.7 152.367 74.7 147.449 81.128 147.449ZM81.128 146.454 74.7 146.454 74.7 141.593 81.128 141.593ZM81.128 140.593 74.7 140.593 74.7 135.917 81.128 135.917ZM88.557 152.367 82.132 152.367 82.132 147.448 88.561 147.448ZM88.557 146.454 82.132 146.454 82.132 141.593 88.561 141.593ZM88.557 140.593 82.132 140.593 82.132 135.917 88.561 135.917ZM95.985 152.367 89.561 152.367 89.561 147.448 95.989 147.448ZM95.985 146.453 89.561 146.453 89.561 141.593 95.989 141.593ZM95.985 140.593 89.561 140.593 89.561 135.917 95.989 135.917ZM103.413 152.367 96.989 152.367 96.989 147.447 103.417 147.447ZM103.413 146.452 96.989 146.452 96.989 141.592 103.417 141.592ZM103.413 140.593 96.989 140.593 96.989 135.917 103.417 135.917ZM110.842 158.242 104.417 158.242 104.417 153.367 110.846 153.367ZM110.842 152.367 104.417 152.367 104.417 147.446 110.846 147.446ZM110.842 146.451 104.417 146.451 104.417 141.593 110.846 141.593ZM110.842 140.593 104.417 140.593 104.417 135.917 110.846 135.917ZM116.775 164 111.846 164 111.846 159.242 116.775 159.242ZM116.793 158.242 111.846 158.242 111.846 153.367 117.146 153.367C116.938 154.984 116.82 156.612 116.793 158.242ZM118.275 147.624C117.863 149.187 117.534 150.77 117.288 152.367L111.846 152.367 111.846 147.445 118.275 147.445ZM118.275 146.45 111.846 146.45 111.846 141.593 118.275 141.593ZM118.275 140.593 111.846 140.593 111.846 135.917 118.275 135.917ZM119.275 144.279 119.275 141.593 120.286 141.593C119.924 142.484 119.582 143.379 119.275 144.279ZM119.275 140.593 119.275 135.917 122.993 135.917C122.144 137.459 121.378 139.018 120.693 140.593ZM128.775 134.05 128.775 168.764 120.775 164.764 120.775 160.064 126.775 162.692 126.775 161.6 120.775 158.972C120.778 157.294 120.883 155.617 121.089 153.951L126.775 155.494 126.775 154.458 121.227 152.958C121.491 151.183 121.869 149.427 122.358 147.7L126.775 148.368 126.775 147.355 122.647 146.732C123.187 144.981 123.834 143.265 124.583 141.593L126.775 141.593 126.775 140.593 125.051 140.593C125.578 139.485 126.152 138.385 126.775 137.293L126.775 132 125.37 132C124.737 132.965 124.124 133.936 123.558 134.917L119.275 134.917 119.275 132 118.275 132 118.275 134.917 111.846 134.917 111.846 132 110.846 132 110.846 134.917 104.417 134.917 104.417 132 103.417 132 103.417 134.917 96.989 134.917 96.989 132 95.989 132 95.989 134.917 89.561 134.917 89.561 132 88.561 132 88.561 134.917 82.132 134.917 82.132 132 81.132 132 81.132 134.917 74.7 134.917 74.7 132 73.7 132 73.7 134.917 67.275 134.917 67.275 132 66.275 132 66.275 134.917 61.992 134.917C61.426 133.936 60.813 132.965 60.18 132L58.78 132 58.78 137.29C59.402 138.384 59.9767 139.484 60.504 140.59L58.775 140.59 58.775 141.59 60.967 141.59C61.7156 143.264 62.3612 144.982 62.9 146.734L58.772 147.372 58.772 148.382 63.189 147.696C63.6833 149.441 64.0637 151.217 64.328 153.011L58.772 154.519 58.772 155.555 64.465 154.01C64.6699 155.665 64.7735 157.332 64.775 159L64.775 159.071 58.775 161.699 58.775 162.791 64.775 160.163 64.775 164.763 56.775 168.763 56.775 130 128.775 130Z"/><path d="M92.834 157.793C85.3229 157.793 79.234 163.882 79.234 171.393 79.234 178.904 85.3229 184.993 92.834 184.993 100.345 184.993 106.434 178.904 106.434 171.393 106.434 163.882 100.345 157.793 92.834 157.793ZM104.407 172C104.305 174.046 103.659 176.027 102.537 177.74L102.315 176.861 97.682 178.1 95.073 182.123 95.822 182.595C93.8626 183.136 91.7934 183.136 89.834 182.595L90.578 182.126 87.969 178.1 83.336 176.861 83.119 177.72C82.008 176.017 81.3673 174.051 81.262 172.02L81.947 172.59 84.967 168.866 84.713 164.077 83.798 164.138C85.0879 162.538 86.7785 161.308 88.698 160.573L88.353 161.435 92.829 163.156 97.3 161.432 96.952 160.563C98.8792 161.297 100.576 162.53 101.87 164.136L100.937 164.074 100.683 168.863 103.703 172.587Z"/><path d="M88.35 170.727 90.071 175.892 92.826 175.892 95.58 175.892 97.301 170.727 92.826 167.285 88.35 170.727Z"/></g></svg>